<svg width="355" height="63" viewBox="0 0 355 63" fill="none" xmlns="http://www.w3.org/2000/svg">
<path d="M39.368 1.16C40.36 1.352 41.096 1.688 41.576 2.168C42.088 2.648 42.344 3.208 42.344 3.848C42.344 4.904 42.04 5.672 41.432 6.152C40.856 6.632 39.928 6.824 38.648 6.728C35.768 6.504 33.512 6.36 31.88 6.296C30.28 6.2 28.168 6.136 25.544 6.104C24.36 11.992 23.272 17.912 22.28 23.864C21.928 26.04 21.56 28.568 21.176 31.448C20.792 34.296 20.536 36.6 20.408 38.36C20.344 39.288 19.96 40.008 19.256 40.52C18.552 41 17.704 41.24 16.712 41.24C15.656 41.24 14.84 40.984 14.264 40.472C13.688 39.96 13.4 39.288 13.4 38.456C13.4 37.688 13.512 36.424 13.736 34.664C13.992 32.872 14.28 31 14.6 29.048C14.952 27.096 15.224 25.4 15.416 23.96C15.768 21.528 16.168 19.112 16.616 16.712C17.064 14.312 17.512 12.04 17.96 9.896C18.056 9.416 18.168 8.872 18.296 8.264C18.424 7.624 18.568 6.92 18.728 6.152C15.592 6.248 13.128 6.504 11.336 6.92C9.544 7.336 8.264 7.928 7.496 8.696C6.76 9.432 6.392 10.392 6.392 11.576C6.392 12.664 6.712 13.704 7.352 14.696C7.48 14.92 7.544 15.16 7.544 15.416C7.544 16.024 7.176 16.6 6.44 17.144C5.736 17.656 5 17.912 4.232 17.912C3.688 17.912 3.24 17.752 2.888 17.432C2.248 16.888 1.72 16.12 1.304 15.128C0.888 14.104 0.68 12.952 0.68 11.672C0.68 8.952 1.56 6.776 3.32 5.144C5.112 3.48 7.816 2.264 11.432 1.496C15.08 0.727998 19.752 0.343997 25.448 0.343997C28.968 0.343997 31.768 0.407997 33.848 0.535997C35.96 0.663998 37.8 0.871998 39.368 1.16ZM39.6076 15.464C38.2636 15.464 37.2556 15.16 36.5836 14.552C35.9116 13.912 35.5756 13.032 35.5756 11.912C35.5756 10.792 36.0076 9.864 36.8716 9.128C37.7676 8.36 38.8716 7.976 40.1836 7.976C41.3676 7.976 42.3276 8.264 43.0636 8.84C43.7996 9.416 44.1676 10.232 44.1676 11.288C44.1676 12.568 43.7516 13.592 42.9196 14.36C42.0876 15.096 40.9836 15.464 39.6076 15.464ZM39.2236 41.24C37.1436 41.24 35.6236 40.504 34.6636 39.032C33.7356 37.56 33.2716 35.608 33.2716 33.176C33.2716 31.736 33.4476 29.896 33.7996 27.656C34.1836 25.384 34.6636 23.272 35.2396 21.32C35.5276 20.296 35.9116 19.592 36.3916 19.208C36.8716 18.824 37.6396 18.632 38.6956 18.632C40.3276 18.632 41.1436 19.176 41.1436 20.264C41.1436 21.064 40.8396 22.92 40.2316 25.832C39.4636 29.352 39.0796 31.736 39.0796 32.984C39.0796 33.944 39.2076 34.68 39.4636 35.192C39.7196 35.704 40.1516 35.96 40.7596 35.96C41.3356 35.96 42.0556 35.56 42.9196 34.76C43.7836 33.96 44.9356 32.696 46.3756 30.968C46.7596 30.52 47.1916 30.296 47.6716 30.296C48.0876 30.296 48.4076 30.488 48.6316 30.872C48.8876 31.256 49.0156 31.784 49.0156 32.456C49.0156 33.736 48.7116 34.728 48.1036 35.432C44.9356 39.304 41.9756 41.24 39.2236 41.24ZM48.5401 41.24C47.3241 41.24 46.4601 40.6 45.9481 39.32C45.4681 38.04 45.2281 35.992 45.2281 33.176C45.2281 29.016 45.8201 25.064 47.0041 21.32C47.2921 20.392 47.7561 19.72 48.3961 19.304C49.0681 18.856 49.9961 18.632 51.1801 18.632C51.8201 18.632 52.2681 18.712 52.5241 18.872C52.7801 19.032 52.9081 19.336 52.9081 19.784C52.9081 20.296 52.6681 21.448 52.1881 23.24C51.8681 24.52 51.6121 25.64 51.4201 26.6C51.2281 27.528 51.0681 28.696 50.9401 30.104C51.8041 27.608 52.8281 25.496 54.0121 23.768C55.2281 22.04 56.4601 20.76 57.7081 19.928C58.9881 19.064 60.1881 18.632 61.3081 18.632C62.4281 18.632 63.2121 18.888 63.6601 19.4C64.1401 19.912 64.3801 20.696 64.3801 21.752C64.3801 22.776 64.0761 24.632 63.4681 27.32C63.2121 28.472 63.0361 29.336 62.9401 29.912C64.5401 25.976 66.3161 23.112 68.2681 21.32C70.2201 19.528 72.0441 18.632 73.7401 18.632C75.8201 18.632 76.8601 19.672 76.8601 21.752C76.8601 23 76.5081 25.256 75.8041 28.52C75.1961 31.304 74.8921 33.144 74.8921 34.04C74.8921 35.32 75.3561 35.96 76.2841 35.96C76.9241 35.96 77.6761 35.576 78.5401 34.808C79.4361 34.008 80.6201 32.728 82.0921 30.968C82.4761 30.52 82.9081 30.296 83.3881 30.296C83.8041 30.296 84.1241 30.488 84.3481 30.872C84.6041 31.256 84.7321 31.784 84.7321 32.456C84.7321 33.736 84.4281 34.728 83.8201 35.432C82.4441 37.128 80.9561 38.52 79.3561 39.608C77.7881 40.696 75.9961 41.24 73.9801 41.24C72.3481 41.24 71.1161 40.776 70.2841 39.848C69.4521 38.888 69.0361 37.512 69.0361 35.72C69.0361 34.824 69.2601 33.224 69.7081 30.92C70.1241 28.904 70.3321 27.512 70.3321 26.744C70.3321 26.232 70.1561 25.976 69.8041 25.976C69.3881 25.976 68.7961 26.52 68.0281 27.608C67.2601 28.664 66.4921 30.072 65.7241 31.832C64.9561 33.592 64.3321 35.448 63.8521 37.4C63.5001 38.936 63.0841 39.96 62.6041 40.472C62.1561 40.984 61.4201 41.24 60.3961 41.24C59.3401 41.24 58.5401 40.744 57.9961 39.752C57.4841 38.728 57.2281 37.496 57.2281 36.056C57.2281 34.84 57.3881 33.08 57.7081 30.776C57.9641 28.728 58.0921 27.384 58.0921 26.744C58.0921 26.232 57.9161 25.976 57.5641 25.976C57.0841 25.976 56.4761 26.552 55.7401 27.704C55.0041 28.856 54.2841 30.328 53.5801 32.12C52.9081 33.912 52.3641 35.672 51.9481 37.4C51.5961 38.904 51.1801 39.928 50.7001 40.472C50.2521 40.984 49.5321 41.24 48.5401 41.24ZM98.0349 31.736C98.4509 31.736 98.7709 31.928 98.9949 32.312C99.2509 32.696 99.3789 33.224 99.3789 33.896C99.3789 35.048 99.1069 36.04 98.5629 36.872C97.6669 38.248 96.4829 39.32 95.0109 40.088C93.5709 40.856 91.8429 41.24 89.8269 41.24C86.7549 41.24 84.3709 40.328 82.6749 38.504C80.9789 36.648 80.1309 34.152 80.1309 31.016C80.1309 28.808 80.5949 26.76 81.5229 24.872C82.4509 22.952 83.7309 21.432 85.3629 20.312C87.0269 19.192 88.8989 18.632 90.9789 18.632C92.8349 18.632 94.3229 19.192 95.4429 20.312C96.5629 21.4 97.1229 22.888 97.1229 24.776C97.1229 26.984 96.3229 28.888 94.7229 30.488C93.1549 32.056 90.4669 33.304 86.6589 34.232C87.4269 35.704 88.7229 36.44 90.5469 36.44C91.8589 36.44 92.9309 36.136 93.7629 35.528C94.6269 34.92 95.6189 33.896 96.7389 32.456C97.1229 31.976 97.5549 31.736 98.0349 31.736ZM90.1629 23.336C88.9789 23.336 87.9709 24.024 87.1389 25.4C86.3389 26.776 85.9389 28.44 85.9389 30.392V30.488C87.8269 30.04 89.3149 29.368 90.4029 28.472C91.4909 27.576 92.0349 26.536 92.0349 25.352C92.0349 24.744 91.8589 24.264 91.5069 23.912C91.1869 23.528 90.7389 23.336 90.1629 23.336ZM151.352 1.16C152.344 1.352 153.08 1.688 153.56 2.168C154.072 2.648 154.328 3.208 154.328 3.848C154.328 4.904 154.024 5.672 153.416 6.152C152.84 6.632 151.912 6.824 150.632 6.728C147.752 6.504 145.496 6.36 143.864 6.296C142.264 6.2 140.152 6.136 137.528 6.104C136.344 11.992 135.256 17.912 134.264 23.864C133.912 26.04 133.544 28.568 133.16 31.448C132.776 34.296 132.52 36.6 132.392 38.36C132.328 39.288 131.944 40.008 131.24 40.52C130.536 41 129.688 41.24 128.696 41.24C127.64 41.24 126.824 40.984 126.248 40.472C125.672 39.96 125.384 39.288 125.384 38.456C125.384 37.688 125.496 36.424 125.72 34.664C125.976 32.872 126.264 31 126.584 29.048C126.936 27.096 127.208 25.4 127.4 23.96C127.752 21.528 128.152 19.112 128.6 16.712C129.048 14.312 129.496 12.04 129.944 9.896C130.04 9.416 130.152 8.872 130.28 8.264C130.408 7.624 130.552 6.92 130.712 6.152C127.576 6.248 125.112 6.504 123.32 6.92C121.528 7.336 120.248 7.928 119.48 8.696C118.744 9.432 118.376 10.392 118.376 11.576C118.376 12.664 118.696 13.704 119.336 14.696C119.464 14.92 119.528 15.16 119.528 15.416C119.528 16.024 119.16 16.6 118.424 17.144C117.72 17.656 116.984 17.912 116.216 17.912C115.672 17.912 115.224 17.752 114.872 17.432C114.232 16.888 113.704 16.12 113.288 15.128C112.872 14.104 112.664 12.952 112.664 11.672C112.664 8.952 113.544 6.776 115.304 5.144C117.096 3.48 119.8 2.264 123.416 1.496C127.064 0.727998 131.736 0.343997 137.432 0.343997C140.952 0.343997 143.752 0.407997 145.832 0.535997C147.944 0.663998 149.784 0.871998 151.352 1.16ZM150.557 41.24C148.669 41.24 147.053 40.776 145.709 39.848C144.397 38.888 143.405 37.64 142.733 36.104C142.061 34.568 141.725 32.92 141.725 31.16C141.725 28.728 142.173 26.568 143.069 24.68C143.997 22.76 145.245 21.272 146.813 20.216C148.381 19.128 150.141 18.584 152.093 18.584C153.981 18.584 155.597 19.064 156.941 20.024C158.285 20.952 159.293 22.184 159.965 23.72C160.637 25.256 160.973 26.904 160.973 28.664C160.973 31.096 160.509 33.272 159.581 35.192C158.653 37.08 157.389 38.568 155.789 39.656C154.221 40.712 152.477 41.24 150.557 41.24ZM151.085 36.056C152.173 36.056 153.085 35.464 153.821 34.28C154.589 33.096 154.973 31.368 154.973 29.096C154.973 27.336 154.653 26.008 154.013 25.112C153.373 24.216 152.605 23.768 151.709 23.768C150.557 23.768 149.597 24.36 148.829 25.544C148.093 26.696 147.725 28.424 147.725 30.728C147.725 32.552 148.045 33.896 148.685 34.76C149.325 35.624 150.125 36.056 151.085 36.056ZM214.098 12.392C214.098 15.112 213.394 17.608 211.986 19.88C210.578 22.152 208.53 24.008 205.842 25.448C203.154 26.888 199.954 27.736 196.242 27.992L194.178 39.56C193.378 44.008 191.202 46.232 187.65 46.232C185.698 46.232 183.89 45.656 182.226 44.504C180.594 43.352 179.282 41.592 178.29 39.224C177.298 36.856 176.802 33.944 176.802 30.488C176.802 23.992 177.842 18.488 179.922 13.976C182.034 9.432 184.85 6.04 188.37 3.8C191.922 1.528 195.826 0.391999 200.082 0.391999C203.09 0.391999 205.634 0.919999 207.714 1.976C209.826 3.032 211.41 4.472 212.466 6.296C213.554 8.088 214.098 10.12 214.098 12.392ZM197.106 23.048C203.666 22.216 206.946 18.808 206.946 12.824C206.946 10.712 206.242 9 204.834 7.688C203.458 6.344 201.314 5.672 198.402 5.672C195.106 5.672 192.226 6.712 189.762 8.792C187.33 10.872 185.442 13.768 184.098 17.48C182.786 21.16 182.13 25.368 182.13 30.104C182.13 32.088 182.322 33.848 182.706 35.384C183.122 36.92 183.634 38.12 184.242 38.984C184.882 39.816 185.49 40.232 186.066 40.232C186.866 40.232 187.474 39.128 187.89 36.92L189.474 27.848C188.226 27.656 187.682 27.576 187.842 27.608C186.882 27.448 186.258 27.16 185.97 26.744C185.682 26.296 185.538 25.736 185.538 25.064C185.538 24.36 185.73 23.8 186.114 23.384C186.53 22.968 187.09 22.76 187.794 22.76C188.114 22.76 188.354 22.776 188.514 22.808C189.282 22.936 189.874 23.016 190.29 23.048C190.706 20.552 191.298 17.208 192.066 13.016C192.258 11.928 192.69 11.16 193.362 10.712C194.066 10.232 194.882 9.992 195.81 9.992C196.866 9.992 197.618 10.2 198.066 10.616C198.546 11 198.786 11.624 198.786 12.488C198.786 13 198.754 13.416 198.69 13.736L197.106 23.048ZM216.071 41.24C214.855 41.24 213.991 40.6 213.479 39.32C212.999 38.04 212.759 35.992 212.759 33.176C212.759 29.016 213.351 25.064 214.535 21.32C214.823 20.392 215.287 19.72 215.927 19.304C216.599 18.856 217.527 18.632 218.711 18.632C219.351 18.632 219.799 18.712 220.055 18.872C220.311 19.032 220.439 19.336 220.439 19.784C220.439 20.296 220.199 21.448 219.719 23.24C219.399 24.52 219.143 25.64 218.951 26.6C218.759 27.56 218.599 28.744 218.471 30.152C219.527 27.4 220.711 25.16 222.023 23.432C223.335 21.704 224.615 20.472 225.863 19.736C227.143 19 228.311 18.632 229.367 18.632C231.447 18.632 232.487 19.672 232.487 21.752C232.487 22.168 232.343 23.176 232.055 24.776C231.799 26.056 231.671 26.856 231.671 27.176C231.671 28.296 232.071 28.856 232.871 28.856C233.767 28.856 234.919 28.152 236.327 26.744C236.743 26.328 237.175 26.12 237.623 26.12C238.039 26.12 238.359 26.312 238.583 26.696C238.839 27.048 238.967 27.528 238.967 28.136C238.967 29.32 238.647 30.248 238.007 30.92C237.111 31.848 236.055 32.648 234.839 33.32C233.655 33.96 232.391 34.28 231.047 34.28C229.351 34.28 228.055 33.848 227.159 32.984C226.295 32.12 225.863 30.952 225.863 29.48C225.863 29 225.911 28.52 226.007 28.04C226.071 27.4 226.103 26.968 226.103 26.744C226.103 26.232 225.927 25.976 225.575 25.976C225.095 25.976 224.455 26.52 223.655 27.608C222.887 28.664 222.119 30.072 221.351 31.832C220.583 33.592 219.959 35.448 219.479 37.4C219.127 38.904 218.711 39.928 218.231 40.472C217.783 40.984 217.063 41.24 216.071 41.24ZM258.987 26.264C259.403 26.264 259.723 26.472 259.947 26.888C260.171 27.304 260.283 27.832 260.283 28.472C260.283 30.008 259.819 30.92 258.891 31.208C256.971 31.88 254.859 32.264 252.555 32.36C251.947 35.048 250.747 37.208 248.955 38.84C247.163 40.44 245.131 41.24 242.859 41.24C240.939 41.24 239.291 40.776 237.915 39.848C236.571 38.92 235.547 37.688 234.843 36.152C234.139 34.616 233.787 32.952 233.787 31.16C233.787 28.728 234.251 26.568 235.179 24.68C236.107 22.76 237.387 21.272 239.019 20.216C240.651 19.128 242.459 18.584 244.443 18.584C246.875 18.584 248.827 19.432 250.299 21.128C251.803 22.792 252.683 24.856 252.939 27.32C254.443 27.224 256.235 26.904 258.315 26.36C258.571 26.296 258.795 26.264 258.987 26.264ZM243.243 36.152C244.267 36.152 245.147 35.736 245.883 34.904C246.651 34.072 247.163 32.872 247.419 31.304C246.427 30.632 245.659 29.752 245.115 28.664C244.603 27.576 244.347 26.424 244.347 25.208C244.347 24.696 244.395 24.184 244.491 23.672H244.251C242.971 23.672 241.899 24.296 241.035 25.544C240.203 26.76 239.787 28.488 239.787 30.728C239.787 32.488 240.123 33.832 240.795 34.76C241.499 35.688 242.315 36.152 243.243 36.152ZM280.739 30.392C281.155 30.392 281.475 30.6 281.699 31.016C281.955 31.4 282.083 31.896 282.083 32.504C282.083 33.24 281.971 33.816 281.747 34.232C281.523 34.648 281.171 35.016 280.691 35.336C277.939 37.192 275.923 38.568 274.643 39.464L271.571 41.528C270.355 48.152 268.755 53.352 266.771 57.128C264.819 60.936 262.323 62.84 259.283 62.84C257.651 62.84 256.323 62.328 255.299 61.304C254.275 60.312 253.763 59 253.763 57.368C253.763 55.096 254.659 52.648 256.451 50.024C258.243 47.432 261.603 44.232 266.531 40.424L266.819 38.552C266.275 39.416 265.555 40.088 264.659 40.568C263.795 41.016 262.931 41.24 262.067 41.24C260.083 41.24 258.499 40.52 257.315 39.08C256.131 37.64 255.539 35.752 255.539 33.416C255.539 30.856 256.131 28.44 257.315 26.168C258.499 23.864 260.067 22.024 262.019 20.648C264.003 19.24 266.099 18.536 268.307 18.536C269.011 18.536 269.475 18.68 269.699 18.968C269.955 19.224 270.163 19.704 270.323 20.408C270.931 20.28 271.635 20.216 272.435 20.216C273.235 20.216 273.795 20.344 274.115 20.6C274.467 20.824 274.643 21.288 274.643 21.992C274.643 22.376 274.627 22.68 274.595 22.904C274.467 23.896 274.067 26.408 273.395 30.44C273.267 31.208 273.123 32.056 272.963 32.984C272.835 33.88 272.691 34.84 272.531 35.864C274.995 33.944 277.363 32.248 279.635 30.776C280.051 30.52 280.419 30.392 280.739 30.392ZM263.795 36.392C264.531 36.392 265.235 35.944 265.907 35.048C266.579 34.152 267.059 32.872 267.347 31.208L268.883 23C267.571 23.032 266.355 23.544 265.235 24.536C264.115 25.496 263.219 26.776 262.547 28.376C261.875 29.976 261.539 31.672 261.539 33.464C261.539 34.456 261.731 35.192 262.115 35.672C262.531 36.152 263.091 36.392 263.795 36.392ZM259.811 58.184C260.611 58.184 261.507 57.224 262.499 55.304C263.523 53.384 264.499 50.328 265.427 46.136C262.963 48.248 261.187 50.152 260.099 51.848C259.011 53.544 258.467 55.032 258.467 56.312C258.467 56.856 258.563 57.304 258.755 57.656C258.979 58.008 259.331 58.184 259.811 58.184ZM282.025 41.24C280.809 41.24 279.945 40.6 279.433 39.32C278.953 38.04 278.713 35.992 278.713 33.176C278.713 29.016 279.305 25.064 280.489 21.32C280.777 20.392 281.241 19.72 281.881 19.304C282.553 18.856 283.481 18.632 284.665 18.632C285.305 18.632 285.753 18.712 286.009 18.872C286.265 19.032 286.393 19.336 286.393 19.784C286.393 20.296 286.153 21.448 285.673 23.24C285.353 24.52 285.097 25.64 284.905 26.6C284.713 27.56 284.553 28.744 284.425 30.152C285.481 27.4 286.665 25.16 287.977 23.432C289.289 21.704 290.569 20.472 291.817 19.736C293.097 19 294.265 18.632 295.321 18.632C297.401 18.632 298.441 19.672 298.441 21.752C298.441 22.168 298.297 23.176 298.009 24.776C297.753 26.056 297.625 26.856 297.625 27.176C297.625 28.296 298.025 28.856 298.825 28.856C299.721 28.856 300.873 28.152 302.281 26.744C302.697 26.328 303.129 26.12 303.577 26.12C303.993 26.12 304.313 26.312 304.536 26.696C304.793 27.048 304.921 27.528 304.921 28.136C304.921 29.32 304.601 30.248 303.961 30.92C303.065 31.848 302.009 32.648 300.793 33.32C299.609 33.96 298.345 34.28 297.001 34.28C295.305 34.28 294.009 33.848 293.113 32.984C292.249 32.12 291.817 30.952 291.817 29.48C291.817 29 291.865 28.52 291.961 28.04C292.025 27.4 292.057 26.968 292.057 26.744C292.057 26.232 291.881 25.976 291.529 25.976C291.049 25.976 290.409 26.52 289.609 27.608C288.841 28.664 288.073 30.072 287.305 31.832C286.537 33.592 285.913 35.448 285.433 37.4C285.081 38.904 284.665 39.928 284.185 40.472C283.737 40.984 283.017 41.24 282.025 41.24ZM306.364 41.24C304.38 41.24 302.796 40.52 301.612 39.08C300.428 37.64 299.836 35.752 299.836 33.416C299.836 30.856 300.428 28.44 301.612 26.168C302.796 23.864 304.364 22.024 306.316 20.648C308.3 19.24 310.396 18.536 312.604 18.536C313.308 18.536 313.772 18.68 313.996 18.968C314.252 19.224 314.46 19.704 314.62 20.408C315.292 20.28 315.996 20.216 316.732 20.216C318.3 20.216 319.084 20.776 319.084 21.896C319.084 22.568 318.844 24.168 318.364 26.696C317.628 30.376 317.26 32.936 317.26 34.376C317.26 34.856 317.372 35.24 317.596 35.528C317.852 35.816 318.172 35.96 318.556 35.96C319.164 35.96 319.9 35.576 320.764 34.808C321.628 34.008 322.796 32.728 324.268 30.968C324.652 30.52 325.084 30.296 325.564 30.296C325.98 30.296 326.3 30.488 326.524 30.872C326.78 31.256 326.908 31.784 326.908 32.456C326.908 33.736 326.604 34.728 325.996 35.432C324.684 37.064 323.292 38.44 321.82 39.56C320.348 40.68 318.924 41.24 317.548 41.24C316.492 41.24 315.516 40.888 314.62 40.184C313.756 39.448 313.1 38.456 312.652 37.208C310.988 39.896 308.892 41.24 306.364 41.24ZM308.092 36.392C308.796 36.392 309.468 35.976 310.108 35.144C310.748 34.312 311.212 33.208 311.5 31.832L313.276 23C311.932 23.032 310.684 23.544 309.532 24.536C308.412 25.496 307.516 26.776 306.844 28.376C306.172 29.976 305.836 31.672 305.836 33.464C305.836 34.456 306.028 35.192 306.412 35.672C306.828 36.152 307.388 36.392 308.092 36.392ZM326.415 41.24C325.199 41.24 324.335 40.6 323.823 39.32C323.343 38.04 323.103 35.992 323.103 33.176C323.103 29.016 323.695 25.064 324.879 21.32C325.167 20.392 325.631 19.72 326.271 19.304C326.943 18.856 327.871 18.632 329.055 18.632C329.695 18.632 330.143 18.712 330.399 18.872C330.655 19.032 330.783 19.336 330.783 19.784C330.783 20.296 330.543 21.448 330.063 23.24C329.743 24.52 329.487 25.64 329.295 26.6C329.103 27.528 328.943 28.696 328.815 30.104C329.679 27.608 330.703 25.496 331.887 23.768C333.103 22.04 334.335 20.76 335.583 19.928C336.863 19.064 338.063 18.632 339.183 18.632C340.303 18.632 341.087 18.888 341.535 19.4C342.015 19.912 342.255 20.696 342.255 21.752C342.255 22.776 341.951 24.632 341.343 27.32C341.087 28.472 340.911 29.336 340.815 29.912C341.871 27.224 343.039 25.032 344.319 23.336C345.631 21.64 346.911 20.44 348.159 19.736C349.407 19 350.559 18.632 351.615 18.632C352.639 18.632 353.407 18.904 353.919 19.448C354.463 19.96 354.735 20.728 354.735 21.752C354.735 22.584 354.559 24.152 354.207 26.456C353.887 28.408 353.631 30.264 353.439 32.024C353.247 33.752 353.151 35.688 353.151 37.832C353.151 39.048 352.895 39.928 352.383 40.472C351.903 40.984 351.103 41.24 349.983 41.24C348.927 41.24 348.159 40.968 347.679 40.424C347.199 39.88 346.959 39.064 346.959 37.976C346.959 36.696 347.183 34.584 347.631 31.64C348.015 29.08 348.207 27.448 348.207 26.744C348.207 26.232 348.031 25.976 347.679 25.976C347.263 25.976 346.671 26.52 345.903 27.608C345.135 28.664 344.367 30.072 343.599 31.832C342.831 33.592 342.207 35.448 341.727 37.4C341.375 38.936 340.959 39.96 340.479 40.472C340.031 40.984 339.295 41.24 338.271 41.24C337.215 41.24 336.415 40.744 335.871 39.752C335.359 38.728 335.103 37.496 335.103 36.056C335.103 34.84 335.263 33.08 335.583 30.776C335.839 28.728 335.967 27.384 335.967 26.744C335.967 26.232 335.791 25.976 335.439 25.976C334.959 25.976 334.351 26.552 333.615 27.704C332.879 28.856 332.159 30.328 331.455 32.12C330.783 33.912 330.239 35.672 329.823 37.4C329.471 38.904 329.055 39.928 328.575 40.472C328.127 40.984 327.407 41.24 326.415 41.24Z" fill="black"/>
</svg>
